# Made in Blockbench 2.3.1
mtllib centrifuge.mtl
o cube
v 7.9253 6.755940000000001 1.4529700000000005
v 7.9253 6.755940000000001 -1.4529699999999997
v 7.9253 -6.35567 1.4529700000000005
v 7.9253 -6.35567 -1.4529699999999997
v 6.3622499999999995 6.755940000000001 -1.4529699999999997
v 6.3622499999999995 6.755940000000001 1.4529700000000005
v 6.3622499999999995 -6.35567 -1.4529699999999997
v 6.3622499999999995 -6.35567 1.4529700000000005
vt 0.354166875 0.520833125
vt 0.354166875 0.354166875
vt 0.395833125 0.520833125
vt 0.354166875 0.354166875
vt 0.395833125 0.354166875
vt 0.395833125 0.520833125
vt 0.416666875 0.520833125
vt 0.416666875 0.354166875
vt 0.458333125 0.520833125
vt 0.416666875 0.354166875
vt 0.458333125 0.354166875
vt 0.458333125 0.520833125
vt 0.395833125 0.541666875
vt 0.354166875 0.541666875
vt 0.395833125 0.520833125
vt 0.354166875 0.541666875
vt 0.354166875 0.520833125
vt 0.395833125 0.520833125
vt 0.395833125 0.541666875
vt 0.4375 0.541666875
vt 0.395833125 0.520833125
vt 0.4375 0.541666875
vt 0.4375 0.520833125
vt 0.395833125 0.520833125
vt 0.333333125 0.520833125
vt 0.333333125 0.354166875
vt 0.354166875 0.520833125
vt 0.333333125 0.354166875
vt 0.354166875 0.354166875
vt 0.354166875 0.520833125
vt 0.395833125 0.520833125
vt 0.395833125 0.354166875
vt 0.416666875 0.520833125
vt 0.395833125 0.354166875
vt 0.416666875 0.354166875
vt 0.416666875 0.520833125
vn 1 0 0
vn 1 0 0
vn 1 0 0
vn 1 0 0
vn 1 0 0
vn 1 0 0
vn -1 0 0
vn -1 0 0
vn -1 0 0
vn -1 0 0
vn -1 0 0
vn -1 0 0
vn 0 1 0
vn 0 1 0
vn 0 1 0
vn 0 1 0
vn 0 1 0
vn 0 1 0
vn 0 -1 0
vn 0 -1 0
vn 0 -1 0
vn 0 -1 0
vn 0 -1 0
vn 0 -1 0
vn 0 0 1
vn 0 0 1
vn 0 0 1
vn 0 0 1
vn 0 0 1
vn 0 0 1
vn 0 0 -1
vn 0 0 -1
vn 0 0 -1
vn 0 0 -1
vn 0 0 -1
vn 0 0 -1
usemtl 1
f 1/1/1 3/2/2 2/3/3
f 3/4/4 4/5/5 2/6/6
usemtl 1
f 5/7/7 7/8/8 6/9/9
f 7/10/10 8/11/11 6/12/12
usemtl 1
f 5/13/13 6/14/14 2/15/15
f 6/16/16 1/17/17 2/18/18
usemtl 1
f 8/19/19 7/20/20 3/21/21
f 7/22/22 4/23/23 3/24/24
usemtl 1
f 6/25/25 8/26/26 1/27/27
f 8/28/28 3/29/29 1/30/30
usemtl 1
f 2/31/31 4/32/32 5/33/33
f 4/34/34 7/35/35 5/36/36
o cube
v 6.4723299999999995 6.3462 1.0897299999999994
v 6.4723299999999995 6.3462 -1.0897300000000003
v 6.4723299999999995 5.1169899999999995 1.0897299999999994
v 6.4723299999999995 5.1169899999999995 -1.0897300000000003
v 2.35558 6.3462 -1.0897300000000003
v 2.35558 6.3462 1.0897299999999994
v 2.35558 5.1169899999999995 -1.0897300000000003
v 2.35558 5.1169899999999995 1.0897299999999994
vt 0.520833125 0.479166875
vt 0.520833125 0.479166875
vt 0.541666875 0.479166875
vt 0.520833125 0.479166875
vt 0.541666875 0.479166875
vt 0.541666875 0.479166875
vt 0.604166875 0.479166875
vt 0.604166875 0.479166875
vt 0.625 0.479166875
vt 0.604166875 0.479166875
vt 0.625 0.479166875
vt 0.625 0.479166875
vt 0.541666875 0.541666875
vt 0.520833125 0.541666875
vt 0.541666875 0.479166875
vt 0.520833125 0.541666875
vt 0.520833125 0.479166875
vt 0.541666875 0.479166875
vt 0.541666875 0.541666875
vt 0.5625 0.541666875
vt 0.541666875 0.479166875
vt 0.5625 0.541666875
vt 0.5625 0.479166875
vt 0.541666875 0.479166875
vt 0.458333125 0.479166875
vt 0.458333125 0.479166875
vt 0.520833125 0.479166875
vt 0.458333125 0.479166875
vt 0.520833125 0.479166875
vt 0.520833125 0.479166875
vt 0.541666875 0.479166875
vt 0.541666875 0.479166875
vt 0.604166875 0.479166875
vt 0.541666875 0.479166875
vt 0.604166875 0.479166875
vt 0.604166875 0.479166875
vn 1 0 0
vn 1 0 0
vn 1 0 0
vn 1 0 0
vn 1 0 0
vn 1 0 0
vn -1 0 0
vn -1 0 0
vn -1 0 0
vn -1 0 0
vn -1 0 0
vn -1 0 0
vn 0 1 0
vn 0 1 0
vn 0 1 0
vn 0 1 0
vn 0 1 0
vn 0 1 0
vn 0 -1 0
vn 0 -1 0
vn 0 -1 0
vn 0 -1 0
vn 0 -1 0
vn 0 -1 0
vn 0 0 1
vn 0 0 1
vn 0 0 1
vn 0 0 1
vn 0 0 1
vn 0 0 1
vn 0 0 -1
vn 0 0 -1
vn 0 0 -1
vn 0 0 -1
vn 0 0 -1
vn 0 0 -1
usemtl 1
f 9/37/37 11/38/38 10/39/39
f 11/40/40 12/41/41 10/42/42
usemtl 1
f 13/43/43 15/44/44 14/45/45
f 15/46/46 16/47/47 14/48/48
usemtl 1
f 13/49/49 14/50/50 10/51/51
f 14/52/52 9/53/53 10/54/54
usemtl 1
f 16/55/55 15/56/56 11/57/57
f 15/58/58 12/59/59 11/60/60
usemtl 1
f 14/61/61 16/62/62 9/63/63
f 16/64/64 11/65/65 9/66/66
usemtl 1
f 10/67/67 12/68/68 13/69/69
f 12/70/70 15/71/71 13/72/72
o cube
v 2.46565 6.755940000000001 2.9059399999999993
v 2.46565 6.755940000000001 -2.90594
v 2.46565 5.1169899999999995 2.9059399999999993
v 2.46565 5.1169899999999995 -2.90594
v -2.45631 6.755940000000001 -2.90594
v -2.45631 6.755940000000001 2.9059399999999993
v -2.45631 5.1169899999999995 -2.90594
v -2.45631 5.1169899999999995 2.9059399999999993
vt 0.083333125 0.458333125
vt 0.083333125 0.4375
vt 0.166666875 0.458333125
vt 0.083333125 0.4375
vt 0.166666875 0.4375
vt 0.166666875 0.458333125
vt 0.25 0.458333125
vt 0.25 0.4375
vt 0.333333125 0.458333125
vt 0.25 0.4375
vt 0.333333125 0.4375
vt 0.333333125 0.458333125
vt 0.166666875 0.541666875
vt 0.083333125 0.541666875
vt 0.166666875 0.458333125
vt 0.083333125 0.541666875
vt 0.083333125 0.458333125
vt 0.166666875 0.458333125
vt 0.166666875 0.541666875
vt 0.25 0.541666875
vt 0.166666875 0.458333125
vt 0.25 0.541666875
vt 0.25 0.458333125
vt 0.166666875 0.458333125
vt 0 0.458333125
vt 0 0.4375
vt 0.083333125 0.458333125
vt 0 0.4375
vt 0.083333125 0.4375
vt 0.083333125 0.458333125
vt 0.166666875 0.458333125
vt 0.166666875 0.4375
vt 0.25 0.458333125
vt 0.166666875 0.4375
vt 0.25 0.4375
vt 0.25 0.458333125
vn 1 0 0
vn 1 0 0
vn 1 0 0
vn 1 0 0
vn 1 0 0
vn 1 0 0
vn -1 0 0
vn -1 0 0
vn -1 0 0
vn -1 0 0
vn -1 0 0
vn -1 0 0
vn 0 1 0
vn 0 1 0
vn 0 1 0
vn 0 1 0
vn 0 1 0
vn 0 1 0
vn 0 -1 0
vn 0 -1 0
vn 0 -1 0
vn 0 -1 0
vn 0 -1 0
vn 0 -1 0
vn 0 0 1
vn 0 0 1
vn 0 0 1
vn 0 0 1
vn 0 0 1
vn 0 0 1
vn 0 0 -1
vn 0 0 -1
vn 0 0 -1
vn 0 0 -1
vn 0 0 -1
vn 0 0 -1
usemtl 1
f 17/73/73 19/74/74 18/75/75
f 19/76/76 20/77/77 18/78/78
usemtl 1
f 21/79/79 23/80/80 22/81/81
f 23/82/82 24/83/83 22/84/84
usemtl 1
f 21/85/85 22/86/86 18/87/87
f 22/88/88 17/89/89 18/90/90
usemtl 1
f 24/91/91 23/92/92 19/93/93
f 23/94/94 20/95/95 19/96/96
usemtl 1
f 22/97/97 24/98/98 17/99/99
f 24/100/100 19/101/101 17/102/102
usemtl 1
f 18/103/103 20/104/104 21/105/105
f 20/106/106 23/107/107 21/108/108
o cube
v 2.46565 -2.53955 2.9059399999999993
v 2.46565 -2.53955 -2.90594
v 2.46565 -4.7167200000000005 2.9059399999999993
v 2.46565 -4.7167200000000005 -2.90594
v -2.45631 -2.53955 -2.90594
v -2.45631 -2.53955 2.9059399999999993
v -2.45631 -4.7167200000000005 -2.90594
v -2.45631 -4.7167200000000005 2.9059399999999993
vt 0.75 0.645833125
vt 0.75 0.604166875
vt 0.833333125 0.645833125
vt 0.75 0.604166875
vt 0.833333125 0.604166875
vt 0.833333125 0.645833125
vt 0.916666875 0.645833125
vt 0.916666875 0.604166875
vt 1 0.645833125
vt 0.916666875 0.604166875
vt 1 0.604166875
vt 1 0.645833125
vt 0.833333125 0.729166875
vt 0.75 0.729166875
vt 0.833333125 0.645833125
vt 0.75 0.729166875
vt 0.75 0.645833125
vt 0.833333125 0.645833125
vt 0.833333125 0.729166875
vt 0.916666875 0.729166875
vt 0.833333125 0.645833125
vt 0.916666875 0.729166875
vt 0.916666875 0.645833125
vt 0.833333125 0.645833125
vt 0.666666875 0.645833125
vt 0.666666875 0.604166875
vt 0.75 0.645833125
vt 0.666666875 0.604166875
vt 0.75 0.604166875
vt 0.75 0.645833125
vt 0.833333125 0.645833125
vt 0.833333125 0.604166875
vt 0.916666875 0.645833125
vt 0.833333125 0.604166875
vt 0.916666875 0.604166875
vt 0.916666875 0.645833125
vn 1 0 0
vn 1 0 0
vn 1 0 0
vn 1 0 0
vn 1 0 0
vn 1 0 0
vn -1 0 0
vn -1 0 0
vn -1 0 0
vn -1 0 0
vn -1 0 0
vn -1 0 0
vn 0 1 0
vn 0 1 0
vn 0 1 0
vn 0 1 0
vn 0 1 0
vn 0 1 0
vn 0 -1 0
vn 0 -1 0
vn 0 -1 0
vn 0 -1 0
vn 0 -1 0
vn 0 -1 0
vn 0 0 1
vn 0 0 1
vn 0 0 1
vn 0 0 1
vn 0 0 1
vn 0 0 1
vn 0 0 -1
vn 0 0 -1
vn 0 0 -1
vn 0 0 -1
vn 0 0 -1
vn 0 0 -1
usemtl 1
f 25/109/109 27/110/110 26/111/111
f 27/112/112 28/113/113 26/114/114
usemtl 1
f 29/115/115 31/116/116 30/117/117
f 31/118/118 32/119/119 30/120/120
usemtl 1
f 29/121/121 30/122/122 26/123/123
f 30/124/124 25/125/125 26/126/126
usemtl 1
f 32/127/127 31/128/128 27/129/129
f 31/130/130 28/131/131 27/132/132
usemtl 1
f 30/133/133 32/134/134 25/135/135
f 32/136/136 27/137/137 25/138/138
usemtl 1
f 26/139/139 28/140/140 29/141/141
f 28/142/142 31/143/143 29/144/144
o cube
v 5.371589999999999 -4.7167200000000005 5.81189
v 5.371589999999999 -4.7167200000000005 -5.81189
v 5.371589999999999 -6.35567 5.81189
v 5.371589999999999 -6.35567 -5.81189
v -5.3622499999999995 -4.7167200000000005 -5.81189
v -5.3622499999999995 -4.7167200000000005 5.81189
v -5.3622499999999995 -6.35567 -5.81189
v -5.3622499999999995 -6.35567 5.81189
vt 0.166666875 0.5625
vt 0.166666875 0.541666875
vt 0.333333125 0.5625
vt 0.166666875 0.541666875
vt 0.333333125 0.541666875
vt 0.333333125 0.5625
vt 0.5 0.5625
vt 0.5 0.541666875
vt 0.666666875 0.5625
vt 0.5 0.541666875
vt 0.666666875 0.541666875
vt 0.666666875 0.5625
vt 0.333333125 0.729166875
vt 0.166666875 0.729166875
vt 0.333333125 0.5625
vt 0.166666875 0.729166875
vt 0.166666875 0.5625
vt 0.333333125 0.5625
vt 0.333333125 0.729166875
vt 0.5 0.729166875
vt 0.333333125 0.5625
vt 0.5 0.729166875
vt 0.5 0.5625
vt 0.333333125 0.5625
vt 0 0.5625
vt 0 0.541666875
vt 0.166666875 0.5625
vt 0 0.541666875
vt 0.166666875 0.541666875
vt 0.166666875 0.5625
vt 0.333333125 0.5625
vt 0.333333125 0.541666875
vt 0.5 0.5625
vt 0.333333125 0.541666875
vt 0.5 0.541666875
vt 0.5 0.5625
vn 1 0 0
vn 1 0 0
vn 1 0 0
vn 1 0 0
vn 1 0 0
vn 1 0 0
vn -1 0 0
vn -1 0 0
vn -1 0 0
vn -1 0 0
vn -1 0 0
vn -1 0 0
vn 0 1 0
vn 0 1 0
vn 0 1 0
vn 0 1 0
vn 0 1 0
vn 0 1 0
vn 0 -1 0
vn 0 -1 0
vn 0 -1 0
vn 0 -1 0
vn 0 -1 0
vn 0 -1 0
vn 0 0 1
vn 0 0 1
vn 0 0 1
vn 0 0 1
vn 0 0 1
vn 0 0 1
vn 0 0 -1
vn 0 0 -1
vn 0 0 -1
vn 0 0 -1
vn 0 0 -1
vn 0 0 -1
usemtl 1
f 33/145/145 35/146/146 34/147/147
f 35/148/148 36/149/149 34/150/150
usemtl 1
f 37/151/151 39/152/152 38/153/153
f 39/154/154 40/155/155 38/156/156
usemtl 1
f 37/157/157 38/158/158 34/159/159
f 38/160/160 33/161/161 34/162/162
usemtl 1
f 40/163/163 39/164/164 35/165/165
f 39/166/166 36/167/167 35/168/168
usemtl 1
f 38/169/169 40/170/170 33/171/171
f 40/172/172 35/173/173 33/174/174
usemtl 1
f 34/175/175 36/176/176 37/177/177
f 36/178/178 39/179/179 37/180/180
o cube
v 7.9253 -6.3610500000000005 7.2648600000000005
v 7.9253 -6.3610500000000005 -7.26486
v 7.9253 -8 7.2648600000000005
v 7.9253 -8 -7.26486
v -6.81523 -6.3610500000000005 -7.26486
v -6.81523 -6.3610500000000005 7.2648600000000005
v -6.81523 -8 -7.26486
v -6.81523 -8 7.2648600000000005
vt 0.25 0.75
vt 0.25 0.729166875
vt 0.5 0.75
vt 0.25 0.729166875
vt 0.5 0.729166875
vt 0.5 0.75
vt 0.75 0.75
vt 0.75 0.729166875
vt 1 0.75
vt 0.75 0.729166875
vt 1 0.729166875
vt 1 0.75
vt 0.5 1
vt 0.25 1
vt 0.5 0.75
vt 0.25 1
vt 0.25 0.75
vt 0.5 0.75
vt 0.5 1
vt 0.75 1
vt 0.5 0.75
vt 0.75 1
vt 0.75 0.75
vt 0.5 0.75
vt 0 0.75
vt 0 0.729166875
vt 0.25 0.75
vt 0 0.729166875
vt 0.25 0.729166875
vt 0.25 0.75
vt 0.5 0.75
vt 0.5 0.729166875
vt 0.75 0.75
vt 0.5 0.729166875
vt 0.75 0.729166875
vt 0.75 0.75
vn 1 0 0
vn 1 0 0
vn 1 0 0
vn 1 0 0
vn 1 0 0
vn 1 0 0
vn -1 0 0
vn -1 0 0
vn -1 0 0
vn -1 0 0
vn -1 0 0
vn -1 0 0
vn 0 1 0
vn 0 1 0
vn 0 1 0
vn 0 1 0
vn 0 1 0
vn 0 1 0
vn 0 -1 0
vn 0 -1 0
vn 0 -1 0
vn 0 -1 0
vn 0 -1 0
vn 0 -1 0
vn 0 0 1
vn 0 0 1
vn 0 0 1
vn 0 0 1
vn 0 0 1
vn 0 0 1
vn 0 0 -1
vn 0 0 -1
vn 0 0 -1
vn 0 0 -1
vn 0 0 -1
vn 0 0 -1
usemtl 1
f 41/181/181 43/182/182 42/183/183
f 43/184/184 44/185/185 42/186/186
usemtl 1
f 45/187/187 47/188/188 46/189/189
f 47/190/190 48/191/191 46/192/192
usemtl 1
f 45/193/193 46/194/194 42/195/195
f 46/196/196 41/197/197 42/198/198
usemtl 1
f 48/199/199 47/200/200 43/201/201
f 47/202/202 44/203/203 43/204/204
usemtl 1
f 46/205/205 48/206/206 41/207/207
f 48/208/208 43/209/209 41/210/210
usemtl 1
f 42/211/211 44/212/212 45/213/213
f 44/214/214 47/215/215 45/216/216
